<?xml version="1.0"?>
<svg width="2000" height="2000" xmlns="http://www.w3.org/2000/svg" xmlns:svg="http://www.w3.org/2000/svg" version="1.1">
 <g class="layer">
  <title>Layer 1</title>
  <path d="m0,0l7,0l1,1l0,44l-1,1l-8,-1l-3,-3l0,-5l4,-3l1,-3l0,-16l-2,-6l-1,-2l-16,-4l0,-1l18,-2z" fill="#0FF" id="svg_32" stroke="#0FF" stroke-width="2" transform="translate(1656,1225)"/>
  <path d="m0,0l19,0l-5,5l-3,7l-3,2l-7,2l-4,0l-1,-3l0,-7l3,-5l1,-1z" fill="#1B0D05" id="svg_35" transform="translate(1343,1477)"/>
  <path d="m0,0l4,0l-1,15l-5,-4l0,2l5,5l0,19l-1,7l-2,0l0,-18l-4,-9l-5,-6l1,-5l6,-5l2,-1z" fill="#0FF" id="svg_36" stroke="#0FF" stroke-width="2" transform="translate(1351,1351)"/>
  <path d="m0,0l19,0l3,3l0,11l-2,3l-3,0l-5,-5l-1,-5l-3,0l0,-3l-3,1l-5,-2l0,-3z" fill="#080504" id="svg_37" transform="translate(1412,1476)"/>
  <path d="m0,0l3,1l0,64l6,1l0,1l-7,0l-2,-7l0,-60z" fill="#2A1C14" id="svg_38" transform="translate(1073,1115)"/>
  <path d="m0,0l3,1l0,29l-1,0l-1,-15l-2,0l-2,-5l-2,-1l-2,-6l4,-2l3,-1z" fill="#0FF" id="svg_41" stroke="#0FF" stroke-width="2" transform="translate(1351,1224)"/>
  <path d="m0,0l5,0l4,4l1,4l-1,1l-14,0l2,-6l3,-3z" fill="#0FF" id="svg_42" stroke="#0FF" stroke-width="2" transform="translate(1619,1385)"/>
  <path d="m0,0l1,0l1,6l0,22l-4,2l-1,-8l2,-20l1,-2z" fill="#0FF" id="svg_43" stroke="#0FF" stroke-width="2" transform="translate(1617,1346)"/>
  <path d="m0,0l12,0l-1,6l-7,4l-2,0l-3,-6l0,-3l1,-1z" fill="#0FF" id="svg_44" stroke="#0FF" stroke-width="2" transform="translate(829,1227)"/>
  <path d="m0,0l7,1l2,2l-1,10l-1,2l-3,-1l-4,-8l0,-6z" fill="#060403" id="svg_45" transform="translate(1372,847)"/>
  <path d="m0,0l7,0l2,5l-9,3l-4,3l-2,0l0,-5l2,-5l4,-1z" fill="#0FF" id="svg_46" stroke="#0FF" stroke-width="2" transform="translate(925,1227)"/>
  <path d="m0,0l18,0l0,3l-5,5l-3,1l0,-2l-5,-2l-1,-3l-4,-2z" fill="#0FF" id="svg_47" stroke="#0FF" stroke-width="2" transform="translate(1173,1227)"/>
  <path d="m0,0l6,1l13,9l0,2l-3,1l-10,-5l0,-3l-2,-1l-1,0l-2,1l-3,-1l0,-3l2,-1z" fill="#080403" id="svg_48" transform="translate(1012,653)"/>
  <path d="m1136,1227l17,0l-5,4l-3,4l-6,-1l-3,-4l0,-3z" fill="#f9fafb" id="svg_49" stroke="#f9fafb" stroke-width="2"/>
  <path d="m0,0l1,0l1,8l6,3l-9,4l-3,-1l-1,-3l0,-7l5,-4z" fill="#060403" id="svg_50" transform="translate(1344,1479)"/>
  <path d="m0,0l4,1l3,9l-3,5l-4,1l-1,-8l1,-8z" fill="#0B0908" id="svg_51" transform="translate(858,1133)"/>
  <path d="m0,0l1,0l0,27l-3,-3l-1,-8l0,-10l1,-4l2,-2z" fill="#040303" id="svg_52" transform="translate(1327,948)"/>
  <path d="m0,0l4,1l5,6l-1,7l-2,0l0,3l-2,0l-2,-10l-2,-3l0,-4z" fill="#060403" id="svg_53" transform="translate(1376,1077)"/>
  <path d="m0,0l10,0l3,2l0,9l-3,3l-4,-12l-3,0l0,2l-2,0l-1,-4z" fill="#050303" id="svg_54" transform="translate(694,1476)"/>
  <path d="m1536,1257l2,1l0,2l2,0l2,6l4,0l0,3l-3,1l-7,0l-1,-2l0,-9l1,-2z" fill="#f9fafb" id="svg_55" stroke="#f9fafb" stroke-width="2"/>
  <path d="m0,0l5,0l2,2l2,8l2,5l-7,-6l-6,-4l1,-4l1,-1z" fill="#050303" id="svg_56" transform="translate(1316,628)"/>
  <path d="m0,0l8,1l4,4l-2,4l0,-2l-7,-1l-4,-3l1,-3z" fill="#060403" id="svg_59" transform="translate(1436,981)"/>
  <path d="m0,0l17,0l-5,5l-3,7l-2,0l0,-7l2,-3l-9,-1l0,-1z" fill="#050303" id="svg_60" transform="translate(1345,1477)"/>
  <path d="m0,0l2,0l0,10l-2,2l-3,-5l-2,-2l5,-5z" fill="#0FF" id="svg_61" stroke="#0FF" stroke-width="2" transform="translate(1330,1290)"/>
  <path d="m879,1226l6,0l0,4l-1,6l-3,-1l-2,-5l0,-4z" fill="#f9fafb" id="svg_62" stroke="#f9fafb" stroke-width="2"/>
  <path d="m0,0l4,1l2,6l-7,0l-1,-2l2,-5z" fill="#0FF" id="svg_64" stroke="#0FF" stroke-width="2" transform="translate(1576,1388)"/>
  <path d="m0,0l2,4l-2,5l-4,-2l0,-5l4,-2z" fill="#1A0C05" id="svg_67" transform="translate(863,1138)"/>
  <path d="m0,0l3,1l-1,8l-4,-5l-2,-2l4,-2z" fill="#0FF" id="svg_68" stroke="#0FF" stroke-width="2" transform="translate(1351,1224)"/>
  <path d="m0,0l3,3l0,2l-9,0l4,-4l2,-1z" fill="#0FF" id="svg_69" stroke="#0FF" stroke-width="2" transform="translate(836,1390)"/>
  <path d="m0,0l6,0l-1,4l-2,2l-3,0l0,-6z" fill="#040303" id="svg_71" transform="translate(796,673)"/>
  <path d="m0,0l4,2l-4,0l0,-2z" fill="#1D0E06" id="svg_72" transform="translate(1008,742)"/>
  <g id="svg_77">
   <path d="m461.91,1225l19,0l17,4l14,6l13,9l10,9l9,10l8,14l6,15l2,15l0,15l-2,12l-8,14l-7,11l-9,11l-13,13l-13,8l-12,4l-15,3l-19,0l-21,-5l-16,-8l-10,-8l-10,-10l-9,-13l-7,-16l-3,-17l0,-16l3,-18l5,-12l6,-11l9,-11l10,-10l14,-9l13,-5l16,-4zm2,34l-13,3l-15,8l-4,5l-8,13l-3,7l-1,5l0,14l3,15l5,12l7,9l8,6l14,7l5,1l20,0l11,-3l12,-6l8,-8l8,-16l1,-6l0,-21l-2,-12l-8,-14l-8,-8l-14,-8l-13,-3l-13,0z" fill="#f9fafb" id="svg_6" stroke="#f9fafb" stroke-width="2" transform="matrix(1 0 0 1 0 0)"/>
   <path d="m1442.91,1224l15,0l14,3l15,6l19,9l1,4l-8,9l-7,17l-5,-1l-12,-7l-16,-5l-11,-1l-11,3l-4,5l-2,3l0,8l4,6l15,8l22,8l14,6l10,7l7,7l6,12l3,11l-1,10l-6,11l-9,13l-9,10l-11,7l-13,4l-5,1l-16,0l-22,-5l-16,-8l-16,-9l-2,-4l6,-9l10,-13l6,-10l3,1l6,8l6,5l12,7l11,3l13,0l8,-3l6,-7l1,-3l0,-8l-4,-6l-12,-6l-16,-6l-16,-5l-14,-7l-7,-7l-8,-14l-1,-5l0,-19l3,-9l6,-11l9,-10l10,-7l15,-6l4,-1z" fill="#f9fafb" id="svg_10" stroke="#f9fafb" stroke-width="2" transform="matrix(1 0 0 1 0 0)"/>
   <path d="m936.91,1386l5,3l3,5l0,1l-12,0l3,-7l1,-2z" fill="#f9fafb" id="svg_58" stroke="#f9fafb" stroke-width="2"/>
   <path d="m751.91,1387l4,2l-1,4l-2,2l-4,0l0,-7l3,-1z" fill="#f9fafb" id="svg_63" stroke="#f9fafb" stroke-width="2"/>
   <path d="m624.91,1387l4,2l1,6l-6,0l0,-6l1,-2z" fill="#f9fafb" id="svg_65" stroke="#f9fafb" stroke-width="2"/>
   <path d="m728.91,1343l2,1l5,12l-1,3l-2,-1l-5,-12l1,-3z" fill="#f9fafb" id="svg_66" stroke="#f9fafb" stroke-width="2"/>
   <path d="m557.91,1303l1,0l0,17l-2,-1l-1,-4l1,-8l1,-4z" fill="#f9fafb" id="svg_70" stroke="#f9fafb" stroke-width="2"/>
   <path d="m667.91,1222l5,0l3,3l18,41l12,26l8,16l15,31l10,24l9,17l9,10l1,5l-1,1l-40,0l-15,-1l-1,-4l6,-5l1,-7l-4,-13l-1,-4l-50,0l-21,1l-5,11l-3,6l1,5l5,6l0,4l-24,1l-19,0l-6,-2l2,-5l8,-10l9,-19l17,-41l10,-24l16,-34l10,-19l9,-15l4,-4l2,-1zm-4,57l-4,10l-14,31l-2,6l0,4l3,1l41,1l-3,-10l-13,-30l-6,-13l-2,0z" fill="#f9fafb" id="svg_9" stroke="#f9fafb" stroke-width="2" transform="matrix(1 0 0 1 0 0)"/>
   <path d="m879.91,1226l19,1l34,0l2,5l-9,3l-8,7l-6,7l-8,7l-10,11l-5,4l-6,9l-11,12l-4,6l2,6l9,11l8,11l14,17l9,10l9,11l12,14l3,3l0,2l2,0l8,8l1,4l-3,1l-39,0l-21,-1l1,-4l5,-6l-1,-5l-8,-11l-9,-10l-11,-14l-10,-16l-2,-6l-3,3l-8,10l-5,3l0,14l1,27l3,7l4,4l1,4l-54,0l-1,-3l5,-6l2,0l2,-7l1,-140l-9,-9l0,-2l2,-1l54,0l-1,6l-7,4l-2,0l-1,9l-2,52l5,-4l7,-8l7,-7l8,-7l12,-14l14,-15l2,-5l-4,-8l0,-4z" fill="#f9fafb" id="svg_8" stroke="#f9fafb" stroke-width="2" transform="matrix(1 0 0 1 0 0)"/>
   <path d="m1042.82,1225.09l16,0l9,9l9,11l8,8l7,8l10,11l9,11l10,11l11,14l7,8l4,6l2,1l0,2l3,0l-1,-49l0,-40c-1.33,-0.67 -2.67,-1.33 -4,-2l-5,-5l1,-4l32,0l22,1l0,3l-5,5l-5,6l0,74l1,52l0,29l-4,4l-5,0l-11,-9l-13,-12l-9,-9l-7,-8l-26,-26l-7,-8l-11,-13l-11,-14l-4,-4l0,25l1,48l1,11l4,5l3,3l1,6l-5,1l-47,0l-1,-4l8,-9l1,-3l1,-110l0,-31l-9,-11l0,-1l9,-1z" fill="#f9fafb" id="svg_5" stroke="#f9fafb" stroke-width="2"/>
   <path d="m1351.91,1224l3,1l0,29l-1,16l-8,-1l-5,-3l-1,-5l-68,0l0,35l49,0l7,-4l5,-2l1,1l0,42l-7,0l-5,-4l-49,-1l0,34l67,0l8,-9l4,-2l4,0l0,45l-37,0l-88,-1l-1,-3l8,-10l1,-141l-7,-6l-3,-4l1,-4l106,0l13,-2l3,-1z" fill="#f9fafb" id="svg_7" stroke="#f9fafb" stroke-width="2"/>
   <path d="m1535.91,1224l17,1l111,0l1,1l0,44l-1,1l-8,-1l-4,-4l-2,-4l-10,-1l-22,-1l3,105l1,17l6,5l2,6l-2,2l-52,0l-1,-2l3,-6l5,-5l0,-121l-31,0l-3,6l-5,3l-7,0l-1,-2l0,-44z" fill="#f9fafb" id="svg_11" stroke="#f9fafb" stroke-width="2"/>
   <g id="svg_75">
    <g id="svg_73">
     <path d="m1092.22,1461.89l6,1l11,12l9,9l1,-21l9,0l5,2l0,45l-5,1l-7,-3l-16,-16l-3,-1l0,19l-11,0l-1,-1l0,-28l1,-18l1,-1z" fill="#f9fafb" id="svg_23" stroke="#f9fafb"/>
     <path d="m1001.22,1461.89l17,0l9,1l6,4l3,6l0,6l-2,3l1,5l4,3l0,8l-7,9l-3,2l-16,1l-10,-1l-1,-1l-1,-7l0,-39zm12,9l-2,1l0,9l1,1l11,-1l1,-1l0,-6l-2,-2l-9,-1zm8,20l-9,2l-1,5l11,0l5,-3l-1,-4l-5,0z" fill="#f9fafb" id="svg_24" stroke="#f9fafb" transform="matrix(1 0 0 1 0 0)"/>
     <path d="m902.22,1461.89l15,0l6,4l3,7l-1,6l-6,-1l-6,-4l-9,0l-5,5l-1,2l0,9l4,6l1,1l9,0l6,-3l7,1l1,4l-5,8l-5,3l-16,0l-8,-5l-5,-6l-3,-8l0,-9l3,-8l7,-8l8,-4z" fill="#f9fafb" id="svg_26" stroke="#f9fafb" transform="matrix(1 0 0 1 0 0)"/>
     <path d="m960.22,1459.89l4,2l11,20l5,13l3,11l0,4l-10,0l-2,-3l0,-5l-18,0l-2,7l-12,0l3,-9l10,-24l6,-14l2,-2zm1,23l-5,6l0,2l5,1l5,-1l-2,-7l-3,-1z" fill="#f9fafb" id="svg_28" stroke="#f9fafb" transform="matrix(1 0 0 1 0 0)"/>
     <path d="m1056.22,1462.89l11,0l2,5l0,41l-1,1l-10,0l-1,-1l-1,-23l0,-23z" fill="#f9fafb" id="svg_31" stroke="#f9fafb" transform="matrix(1 0 0 1 0 0)"/>
    </g>
    <path d="m1161.33,1463.4l3.76,0l3.51,0.82l3.76,1.63l4.76,2.45l0.25,1.09l-2,2.45l-1.75,4.62l-1.25,-0.27l-3.01,-1.9l-4.01,-1.36l-2.75,-0.27l-2.75,0.82l-1,1.36l-0.5,0.82l0,2.18l1,1.63l3.76,2.18l5.51,2.18l3.51,1.63l2.5,1.9l1.75,1.9l1.5,3.26c0.25,1 0.5,1.99 0.75,2.99l-0.25,2.72l-1.5,2.99l-2.25,3.54l-2.25,2.72l-2.75,1.9l-3.26,1.09l-1.25,0.27l-4.01,0l-5.51,-1.36l-4.01,-2.18l-4.01,-2.45l-0.5,-1.09l1.5,-2.45l2.5,-3.54l1.5,-2.72l0.75,0.27l1.5,2.18l1.5,1.36l3.01,1.9l2.75,0.82l3.26,0l2,-0.82l1.5,-1.9l0.25,-0.82l0,-2.18l-1,-1.63l-3.01,-1.63l-4.01,-1.63l-4.01,-1.36l-3.51,-1.9l-1.75,-1.9l-2,-3.81l-0.25,-1.36l0,-5.17l0.75,-2.45l1.5,-2.99l2.25,-2.72l2.5,-1.9l3.76,-1.63l1,-0.27z" fill="#f9fafb" id="svg_74" stroke="#f9fafb" stroke-width="2"/>
   </g>
   <path d="m656.91,1475l43,0l7,2l1,1l0,13l-2,3l-18,1l-86,0l-3,-2l-2,-8l2,-5l6,-3l15,-1l37,-1z" fill="#f9fafb" id="svg_18" stroke="#f9fafb" transform="matrix(1 0 0 1 0 0)"/>
   <path d="m1404.8,1476.11l18,0l10,2l1,2l0,11l-3,4l-28,1l-61,0l-3,-5l0,-7l3,-5l3,-2l60,-1z" fill="#f9fafb" id="svg_21" stroke="#f9fafb"/>
   <g id="svg_76">
    <path d="m1312.91,628l9,0l6,9l7,18l7,9l8,6l16,10l4,5l1,5l-3,7l-6,6l-9,0l-13,-5l-8,-7l-3,-3l-2,0l1,11l7,14l7,8l0,2l4,2l7,6l14,6l13,4l6,4l5,5l1,5l-3,7l-3,5l-5,2l-15,0l-8,-3l-10,-7l-12,-11l-6,-8l-4,-1l3,18l5,9l8,10l9,9l12,9l15,8l18,8l3,4l-1,7l-8,7l-4,1l-12,0l-11,-4l-12,-7l-8,-8l-8,-7l-5,-6l-1,0l-1,14l7,14l9,10l9,6l25,6l4,3l-1,10l-1,8l7,8l10,8l7,8l1,3l0,10l-4,9l-5,4l-17,5l-7,1l-19,0l-11,-4l-14,-6l1,4l2,46l1,14l93,1l13,1l8,3l3,3l0,8l-5,8l-1,1l-175,0l-321,1l-346,0l-4,-6l-1,-6l3,-7l6,-4l4,-1l19,-1l72,0l-1,-14l-1,-55l-26,12l-4,1l-16,0l-8,-4l-4,-5l-2,-4l0,-6l4,-6l6,-3l27,0l8,-3l7,-6l7,-10l2,-4l0,-11l-1,-4l-4,1l-14,9l-9,3l-11,-1l-6,-4l-4,-5l0,-6l5,-7l16,-6l10,-3l8,-7l7,-8l2,-7l1,-17l1,-4l-7,3l-10,8l-3,1l-2,4l-8,7l-10,5l-8,0l-5,-3l-5,-9l0,-7l6,-7l15,-5l6,-4l26,-26l2,-3l0,-20l-5,3l-7,8l-10,7l-6,3l-9,1l-6,-3l-5,-9l1,-6l7,-6l18,-10l9,-8l8,-12l4,-13l3,-21l4,-5l4,-1l7,0l6,3l2,2l2,15l2,11l7,13l10,10l15,8l12,4l7,6l0,8l-7,8l-9,3l-12,-3l-10,-5l-11,-11l-6,-3l1,19l3,8l11,12l13,9l17,8l10,3l6,4l2,3l0,9l-4,5l-7,4l-11,0l-14,-5l-14,-9l-11,-8l0,14l3,9l7,9l9,8l17,8l10,4l5,4l1,5l-6,8l-4,2l-17,0l-12,-6l-9,-7l-4,-1l0,12l4,8l10,11l11,7l15,4l20,4l5,3l1,3l-4,8l-7,6l-5,2l-24,0l-12,-4l-11,-6l-3,-1l1,67l95,0l14,1l0,-119l1,-3l-8,4l-1,1l-6,0l-6,-9l-8,-14l-3,-3l0,-5l14,-15l14,-14l2,0l2,-4l2,0l2,-4l21,-21l1,-5l-1,-7l1,-53l2,-12l1,-1l60,-1l1,1l1,21l6,-4l10,-8l14,-12l10,-8l17,-14l17,-12l12,-7l5,1l11,7l17,14l11,9l14,12l13,11l28,22l11,9l14,12l15,14l14,12l11,9l13,11l8,7l7,7l8,7l13,13l2,4l-1,6l-12,22l-6,6l-9,-1l-9,-6l0,118l70,0l43,1l0,-35l1,-27l1,-5l-13,8l-13,5l-5,1l-15,0l-14,-3l-8,-5l-5,-6l-2,-6l1,-8l5,-7l12,-9l6,-5l5,-8l-1,-7l-2,-9l3,-5l19,-5l12,-7l10,-10l2,-4l2,-23l-8,7l-10,10l-14,11l-8,4l-10,-1l-8,-5l-5,-8l2,-5l9,-8l14,-8l12,-9l14,-12l9,-11l2,-5l-1,-15l-5,2l-15,15l-8,6l-12,2l-11,-2l-6,-7l-2,-7l4,-6l7,-6l7,-2l10,-2l13,-8l10,-9l6,-8l2,-4l1,-19l-8,6l-7,6l-8,3l-9,-2l-7,-8l-1,-7l5,-6l12,-8l14,-14l6,-8l4,-11l7,-11l2,-1zm-304,50l-9,10l-12,10l-16,12l-16,13l-11,9l-10,9l-10,8l-16,12l-12,11l-8,7l-17,17l-8,7l-9,9l-8,7l-8,8l-5,8l0,3l4,2l5,-1l11,-10l11,-9l15,-13l13,-12l14,-12l13,-10l9,-8l25,-20l11,-9l11,-10l10,-8l13,-11l9,-6l6,1l14,10l13,10l16,11l21,16l13,11l11,9l16,13l11,9l13,11l16,15l12,11l10,9l6,6l9,1l2,-1l-1,-5l-8,-11l-15,-14l-12,-11l-3,-3l-2,0l-1,-3l-8,-7l-13,-11l-11,-9l-15,-13l-14,-11l-15,-13l-16,-13l-19,-14l-16,-12l-7,-6l-7,-8l-5,-1zm-125,42l0,31l4,-2l10,-9l7,-8l0,-10l-7,-2l-14,0zm120,14l-1,4l4,5l-3,3l-2,4l-20,4l-11,8l-7,8l-1,5l43,2l33,1l8,1l-2,9l-4,4l-6,2l-11,1l-19,0l-24,-2l-12,-3l-12,-5l-12,0l-11,4l-8,5l-8,7l3,3l28,5l17,5l9,2l13,1l26,1l26,0l19,-1l10,-5l20,-3l18,-3l2,-2l-10,-9l-13,-8l-15,-6l-19,-19l-11,-7l-15,-6l-8,-6l-4,-6l-4,-3l-6,0zm70,93l0,23l83,0l0,-4l-10,-11l-9,-6l-2,-1l-13,-1l-49,0zm-124,0l-47,1l-14,1l-8,4l-11,10l-8,6l0,2l67,0l28,-1l1,-11l0,-11l-8,-1zm31,19l0,30l1,4l26,0l0,-34l-27,0zm43,0l-1,2l0,32l25,0l0,-34l-24,0zm305,6l-1,6l0,12l7,11l7,8l9,6l12,4l8,0l5,-5l-3,-5l-10,-9l-11,-9l-11,-10l-8,-7l-4,-2zm-28,4l-13,11l-14,14l-11,9l-2,2l0,3l6,3l9,0l12,-5l12,-11l4,-8l1,-3l0,-12l-1,-3l-3,0zm-226,15l-1,1l0,23l30,1l57,0l1,-1l0,-22l-54,-1l-33,-1zm-138,1l-73,2l-3,1l-1,6l0,15l96,0l1,-1l0,-23l-20,0zm44,32l0,51l1,22l65,0l1,-73l-67,0zm94,13l0,21l1,1l7,1l79,0l0,-22l-87,-1zm-143,0l-45,1l-27,1l0,21l96,0l1,-1l0,-22l-25,0zm-71,46l-1,17l1,1l97,0l-1,-18l-96,0zm214,0l-1,1l0,16l1,1l88,0l1,-4l-1,-14l-88,0z" fill="#f9fafb" id="svg_1" stroke="#f9fafb"/>
    <path d="m999.91,500l9,2l16,12l13,11l20,15l18,14l11,9l5,4l9,-1l29,-8l20,-6l7,1l11,8l19,19l8,7l15,15l8,7l12,11l14,11l12,10l-1,7l-5,10l-3,4l-8,-1l-8,-4l-26,-24l-11,-9l-14,-12l-11,-9l-5,-4l-11,-14l-2,-4l-7,1l-31,9l-13,5l-8,2l-9,1l11,8l19,19l11,9l13,12l18,18l8,7l8,10l2,6l-6,10l-5,4l-10,-3l-10,-9l-15,-15l0,-2l-4,-2l-13,-13l-8,-7l-14,-13l-11,-9l-7,-7l-2,-3l1,-8l6,-11l2,-4l0,-7l-4,-8l-6,-5l-13,-5l-10,-7l-6,-4l-2,0l6,18l0,11l-6,12l-3,3l-8,-1l-8,-7l-3,-4l-2,-7l-4,-29l-4,-19l-3,-6l-6,2l-12,9l-10,8l-13,10l-20,15l-14,12l-19,14l-11,9l-14,14l-8,7l-14,13l-2,0l-2,4l-4,4l-2,0l-2,4l-8,7l-15,15l-7,8l-6,5l-7,-1l-8,-6l-4,-4l1,-7l9,-9l14,-11l13,-12l4,-2l2,-4l7,-7l8,-7l14,-14l8,-7l9,-9l2,-4l-10,-3l-26,-5l-5,0l-7,9l-8,7l-10,9l-8,7l-8,9l-2,0l-1,3l-6,5l-13,13l-11,9l-5,4l-5,0l-5,-4l-6,-8l1,-5l9,-11l11,-11l8,-7l16,-15l15,-15l2,0l1,-3l8,-7l15,-15l6,-3l10,0l15,3l17,5l27,7l4,-1l11,-8l13,-12l14,-11l20,-15l18,-13l11,-5z" fill="#f9fafb" id="svg_3" stroke="#f9fafb"/>
    <path d="m662.91,1028l751,0l4,2l2,4l0,9l-4,8l-2,1l-287,0l-54,1l-187,0l-71,-1l-123,0l-38,1l-23,0l-4,-3l0,-2l-2,0l-2,-4l0,-6l6,-8l2,-1l32,-1z" fill="#f9fafb" id="svg_4" stroke="#f9fafb"/>
    <path d="m1208.91,1075l167,0l6,4l4,5l1,9l-5,6l-3,2l-91,0l-109,-1l-9,-2l-3,-7l0,-7l2,-4l8,-3l7,-1l25,-1z" fill="#f9fafb" id="svg_12" stroke="#f9fafb"/>
    <path d="m725.91,1075l113,0l18,1l8,3l2,7l-2,10l-5,3l-18,1l-119,2l-48,2l-13,0l-4,-5l-2,-5l2,-9l5,-6l3,-2l5,-1l55,-1z" fill="#f9fafb" id="svg_13" stroke="#f9fafb"/>
    <path d="m1220.91,1125l116,0l5,3l4,5l0,6l-4,6l-4,4l-102,1l-44,2l-16,0l-5,-3l-2,-4l1,-9l4,-6l6,-2l23,-2l18,-1z" fill="#f9fafb" id="svg_14" stroke="#f9fafb"/>
    <path d="m753.91,1125l75,1l22,1l8,3l5,6l2,7l-3,5l-3,2l-11,1l-149,0l-7,-8l1,-7l4,-6l4,-3l6,-1l46,-1z" fill="#f9fafb" id="svg_15" stroke="#f9fafb"/>
    <path d="m982.91,1113l17,1l0,23l24,1l0,-24l3,-1l15,0l1,1l0,67l-1,1l-16,0l-1,-2l0,-27l-23,1l0,27l-1,1l-18,0l-1,-6l0,-62l1,-1z" fill="#f9fafb" id="svg_16" stroke="#f9fafb"/>
    <path d="m1073.91,1113l48,0l1,1l0,14l-1,1l-31,-1l0,10l24,0l2,7l-1,7l-1,1l-24,0l0,10l32,1l0,17l-47,1l-2,-7l0,-62z" fill="#f9fafb" id="svg_17" stroke="#f9fafb"/>
    <path d="m1264.91,1165l19,0l6,3l4,5l0,11l-3,5l-1,1l-12,0l-10,-2l-64,-3l-10,-1l-3,-2l2,-10l9,-3l21,-2l42,-2z" fill="#f9fafb" id="svg_19" stroke="#f9fafb"/>
    <path d="m897.91,1111l59,2l0,15l-2,2l-18,0l1,2l0,50l-18,0l0,-53l-14,0l-7,-2l-1,-16z" fill="#f9fafb" id="svg_20" stroke="#f9fafb"/>
    <path d="m749.91,1168l37,1l39,2l13,2l3,2l0,8l-25,3l-62,4l-5,-2l-6,-7l-1,-5l5,-7l2,-1z" fill="#f9fafb" id="svg_22" stroke="#f9fafb"/>
    <path d="m1000.91,411l30,0l32,3l45,7l28,7l36,12l28,11l19,9l22,12l19,12l19,13l17,13l14,12l7,7l8,7l11,11l7,8l10,11l11,14l15,20l16,24l12,21l13,25l10,25l8,22l10,34l6,27l5,29l3,45l0,24l-2,41l-2,18l-6,26l-3,5l-14,0l-5,-2l0,-9l5,-39l2,-35l0,-28l-2,-33l-6,-39l-7,-30l-9,-31l-11,-28l-8,-18l-14,-27l-15,-24l-9,-12l-10,-13l-14,-17l-9,-11l-21,-21l-11,-9l-14,-12l-20,-15l-15,-10l-24,-14l-29,-14l-27,-11l-20,-7l-23,-7l-34,-7l-29,-3l-15,-1l-52,0l-39,3l-33,7l-34,9l-26,10l-21,9l-17,8l-22,12l-18,12l-13,9l-11,8l-11,9l-14,12l-11,10l-8,7l-7,7l-1,2l-2,0l-2,4l-13,15l-6,7l-10,14l-7,9l-10,14l-12,22l-16,32l-7,16l-7,25l-7,23l-7,41l-3,27l-1,24l0,39l3,36l4,26l1,16l-2,1l-18,0l-3,-4l-4,-15l-3,-20l-2,-26l0,-67l3,-40l5,-28l5,-22l8,-26l8,-22l8,-18l8,-16l12,-23l14,-23l13,-18l10,-13l9,-11l12,-14l29,-29l8,-7l16,-13l12,-9l17,-12l19,-12l22,-13l28,-13l20,-8l34,-11l38,-10l35,-6l25,-3l14,-1z" fill="#f9fafb" id="svg_2" stroke="#f9fafb"/>
   </g>
  </g>
 </g>
</svg>